<?xml version="1.0" encoding="UTF-8"?>
<svg width="150px" height="198px" viewBox="0 0 150 198" version="1.1" xmlns="http://www.w3.org/2000/svg" xmlns:xlink="http://www.w3.org/1999/xlink">
    <!-- Generator: Sketch 50.2 (55047) - http://www.bohemiancoding.com/sketch -->
    <title>Runny</title>
    <desc>Created with Sketch.</desc>
    <defs></defs>
    <g id="Runny" stroke="none" stroke-width="1" fill="none" fill-rule="evenodd">
        <circle id="Oval-6" fill="#F9D056" cx="75" cy="75" r="75"></circle>
        <path d="M34.0378261,167.942799 C43.1229349,167.942799 52.2639762,151.866058 40.2439354,127.56694 C28.2238946,103.267822 43.1229349,105.028194 34.0378261,105.028194 C24.9527173,105.028194 34.0378261,108.909326 34.0378261,127.56694 C34.0378261,146.224554 24.9527173,167.942799 34.0378261,167.942799 Z" id="Oval-5" fill="#F9D056" transform="translate(38.000000, 136.471400) scale(-1, 1) translate(-38.000000, -136.471400) "></path>
        <path d="M73.8232881,198 C91.4256864,198 109.136454,177.055701 85.8476248,145.399536 C62.5587958,113.743371 91.4256864,116.036731 73.8232881,116.036731 C56.2208898,116.036731 73.8232881,121.092953 73.8232881,145.399536 C73.8232881,169.706119 56.2208898,198 73.8232881,198 Z" id="Oval-5" fill="#F9D056"></path>
        <text font-family="Roboto-Thin, Roboto" font-size="36" font-style="condensed" font-weight="300" fill="#000000">
            <tspan x="25.0693359" y="84">Runny</tspan>
        </text>
    </g>
</svg>